<svg width="800" height="818" viewBox="0 0 800 818" fill="none" xmlns="http://www.w3.org/2000/svg">
<path fill-rule="evenodd" clip-rule="evenodd" d="M366.625 387.58C292.902 284.965 222.167 248.103 149.44 226.186C282.939 207.257 385.554 324.816 400.498 344.741C414.446 324.816 517.061 207.257 650.56 226.186C578.829 248.103 508.095 284.965 433.375 387.58C473.225 432.412 493.151 484.218 490.162 530.046C488.169 562.923 472.229 595.8 430.386 623.695C432.379 604.766 432.379 586.833 432.379 571.889C423.412 574.878 403.487 586.833 391.532 597.792C387.547 577.867 388.543 559.934 390.535 541.005L429.39 528.054C424.408 496.173 413.45 470.27 400.498 442.375C375.592 492.188 361.644 536.024 370.61 623.695C328.767 595.8 311.831 562.923 309.838 530.046C306.849 484.218 327.771 432.412 366.625 387.58ZM464.259 764.168C473.225 761.179 480.199 763.172 486.177 767.157C489.166 769.149 491.158 771.142 493.151 774.131L496.139 778.116C501.121 785.09 504.11 793.06 510.087 800.034C516.065 806.011 526.027 808.004 532.005 802.026C536.986 797.045 537.983 789.075 538.979 782.101C537.983 782.101 535.99 782.101 534.994 782.101C521.046 782.101 511.083 779.112 504.11 774.131C500.125 770.146 497.136 765.164 496.139 759.187C496.139 757.194 496.139 753.209 496.139 747.232V685.463L486.177 680.482L485.181 679.486H496.139H512.08C512.08 701.404 512.08 723.321 512.08 746.235C512.08 752.213 512.08 757.194 513.076 760.183C513.076 763.172 514.072 766.161 516.065 769.149C518.057 773.134 521.046 776.123 525.031 777.12C528.02 779.112 531.009 780.108 534.994 780.108C541.968 780.108 550.934 777.12 555.915 773.134C560.897 769.149 562.889 764.168 562.889 758.19C562.889 756.198 563.885 751.217 563.885 743.247V690.445L547.945 680.482V679.486H563.885H566.874C566.874 702.4 566.874 725.314 566.874 749.224C566.874 752.213 565.878 756.198 565.878 758.19C564.882 772.138 553.923 780.108 540.971 782.101C540.971 790.071 538.979 798.041 534.994 805.015C526.027 818.963 509.091 823.944 497.136 809.996C493.151 805.015 491.158 799.037 489.166 793.06C488.169 795.052 488.169 798.041 487.173 800.034C480.199 816.97 460.274 824.94 447.323 809.996C440.349 802.026 438.356 790.071 434.371 781.105C426.401 782.101 418.431 781.105 410.461 777.12C406.476 775.127 401.494 772.138 397.509 768.153C387.547 760.183 381.569 749.224 380.573 735.276L385.554 727.306L380.573 719.336C382.565 708.377 388.543 697.418 397.509 690.445C401.494 686.46 406.476 683.471 410.461 681.478C422.416 675.501 434.371 675.501 446.326 681.478C451.308 683.471 456.289 686.46 460.274 690.445C469.24 697.418 474.222 708.377 476.214 719.336L472.229 727.306L477.21 735.276C476.214 747.232 471.233 756.198 464.259 764.168ZM488.169 790.071C487.173 787.082 486.177 784.093 485.181 781.105L484.184 779.112C480.199 770.146 474.222 764.168 461.27 768.153H460.274C456.289 772.138 451.308 775.127 446.326 777.12L445.33 778.116C450.311 785.09 453.3 793.06 459.278 800.034C466.252 807.007 477.21 808.004 483.188 800.034C485.181 797.045 487.173 794.056 488.169 790.071ZM745.205 736.273L730.261 698.415L715.318 736.273H745.205ZM775.093 768.153L791.034 778.116V780.108H780.075H775.093H763.138L747.198 739.261H714.321L704.359 765.164L699.377 786.086L687.422 780.108H660.523H629.639V778.116L644.583 768.153V727.306V709.374V690.445V685.463L634.62 680.482V679.486H644.583H660.523V681.478V726.31V729.299V778.116H674.471C679.452 778.116 683.437 777.12 687.422 777.12L705.355 755.202C715.318 730.295 727.273 697.418 734.247 679.486H738.232L775.093 768.153ZM609.714 773.134L619.676 778.116V780.108H609.714H577.833V778.116L593.773 768.153V727.306V713.359V690.445V685.463L583.811 680.482L582.814 679.486H593.773H601.743H609.714H619.676V680.482L609.714 685.463V726.31V729.299V773.134ZM456.289 717.344C450.311 666.534 406.476 666.534 401.494 717.344L406.476 727.306L400.498 737.269C401.494 749.224 404.483 759.187 408.468 766.161C420.423 761.179 429.39 762.176 435.367 767.157C438.356 769.149 440.349 771.142 442.341 774.131C449.315 767.157 455.293 755.202 456.289 737.269L450.311 727.306L456.289 717.344ZM410.461 768.153C416.438 777.12 425.405 781.105 433.375 779.112C429.39 770.146 423.412 764.168 410.461 768.153ZM366.625 786.086L373.599 755.202H371.606L354.67 777.12C350.685 777.12 346.7 778.116 341.719 778.116H322.79V729.299H326.775C331.756 729.299 334.745 729.299 336.737 729.299C339.726 730.295 340.722 731.291 342.715 733.284C343.711 734.28 344.707 736.273 345.704 738.265L351.681 727.306L345.704 716.347C344.707 718.34 343.711 720.332 342.715 722.325C340.722 723.321 339.726 724.318 336.737 725.314C334.745 725.314 331.756 726.31 326.775 726.31H322.79V681.478H336.737C341.719 681.478 346.7 681.478 349.689 682.474L367.621 703.396H368.618L361.644 673.508L349.689 679.486H305.853H295.89V680.482L305.853 685.463V690.445V727.306V768.153L290.909 778.116V780.108H354.67L366.625 786.086ZM124.533 778.116H141.469C146.451 778.116 150.436 777.12 153.425 777.12L171.357 755.202H173.35L166.376 786.086L153.425 780.108H124.533H92.6525V778.116L108.593 768.153V727.306V698.415V690.445V685.463L98.6301 680.482L97.6339 679.486H108.593H124.533V681.478V726.31V729.299V778.116ZM84.6824 786.086L92.6525 755.202H90.66L72.7273 777.12C69.7385 777.12 65.7534 778.116 59.7758 778.116H40.8468V729.299H45.8281C49.8132 729.299 52.802 729.299 55.7908 729.299C57.7833 730.295 59.7758 731.291 60.7721 733.284C62.7646 734.28 63.7609 736.273 63.7609 738.265L70.7347 727.306L63.7609 716.347C63.7609 718.34 62.7646 720.332 60.7721 722.325C59.7758 723.321 57.7833 724.318 55.7908 725.314C52.802 725.314 49.8132 726.31 45.8281 726.31H40.8468V681.478H55.7908C60.7721 681.478 64.7572 681.478 67.7459 682.474L85.6787 703.396H87.6712L80.6974 673.508L67.7459 679.486H24.9066H14.944V680.482L24.9066 685.463V690.445V704.392V727.306V768.153L8.96638 778.116V780.108H72.7273L84.6824 786.086ZM236.115 679.486H238.107H249.066H252.055H270.984L283.935 673.508L290.909 703.396H288.917L270.984 682.474C267.995 681.478 264.01 681.478 259.029 681.478H252.055V744.243V745.239V757.194V773.134L262.017 778.116V780.108H252.055H236.115H220.174V778.116L236.115 768.153V757.194V727.306V681.478H229.141C224.159 681.478 220.174 681.478 216.189 682.474L198.257 703.396H197.26L204.234 673.508L216.189 679.486H236.115ZM414.446 84.7161C418.431 49.8468 413.45 21.9514 400.498 1.0299L399.502 0.0336361V1.0299C386.55 21.9514 382.565 49.8468 385.554 84.7161C363.636 67.7796 341.719 58.8132 319.801 55.8244C345.704 77.7422 367.621 104.641 375.592 130.544C336.737 109.623 301.868 106.634 267.995 113.608C329.763 135.526 369.614 165.413 399.502 197.294V198.29L400.498 197.294C430.386 165.413 470.237 135.526 533.001 113.608C499.128 106.634 464.259 109.623 425.405 130.544C433.375 104.641 454.296 77.7422 480.199 55.8244C458.281 58.8132 436.364 67.7796 414.446 84.7161ZM604.732 179.361C521.046 164.417 455.293 189.324 400.498 239.137C344.707 189.324 278.954 164.417 195.268 179.361C295.89 201.279 348.692 244.118 399.502 300.905V301.902H400.498V300.905C452.304 244.118 505.106 201.279 604.732 179.361ZM800 411.491C713.325 386.584 621.669 392.562 520.05 478.24C527.024 503.147 529.016 531.042 521.046 555.949C582.814 487.207 697.385 420.457 800 411.491ZM731.258 300.905C639.602 287.954 548.941 307.879 475.218 395.55C487.173 410.494 497.136 426.435 505.106 441.379C578.829 359.685 657.534 318.838 731.258 300.905ZM0 411.491C87.6712 386.584 178.331 392.562 279.95 478.24C272.976 503.147 270.984 531.042 278.954 555.949C218.182 487.207 102.615 420.457 0 411.491ZM68.7422 300.905C160.398 287.954 251.059 307.879 324.782 395.55C312.827 410.494 302.864 426.435 294.894 441.379C221.171 359.685 142.466 318.838 68.7422 300.905Z" fill="url(#paint0_linear_70_3)"/>
<defs>
<linearGradient id="paint0_linear_70_3" x1="34.6922" y1="575.801" x2="765.643" y2="242.347" gradientUnits="userSpaceOnUse">
<stop stop-color="#8A5F2F"/>
<stop offset="0.239216" stop-color="#9A6E3B"/>
<stop offset="0.380392" stop-color="#BC995F"/>
<stop offset="0.501961" stop-color="#E7CB96"/>
<stop offset="0.631373" stop-color="#BC995F"/>
<stop offset="0.760784" stop-color="#9A6E3B"/>
<stop offset="1" stop-color="#8A5F2F"/>
</linearGradient>
</defs>
</svg>
