<svg width="279" height="286" viewBox="0 0 279 286" fill="none" xmlns="http://www.w3.org/2000/svg">
<rect width="279" height="286" fill="#F5F5F5"/>
<rect width="279" height="285" fill="white"/>
<path fill-rule="evenodd" clip-rule="evenodd" d="M127.861 135.037C102.149 99.285 77.4807 86.4419 52.1171 78.8055C98.675 72.2104 134.462 113.169 139.674 120.112C144.538 113.169 180.325 72.2104 226.883 78.8055C201.867 86.4419 177.198 99.285 151.139 135.037C165.037 150.657 171.986 168.707 170.944 184.674C170.249 196.128 164.69 207.583 150.097 217.302C150.792 210.707 150.792 204.459 150.792 199.252C147.665 200.294 140.716 204.459 136.547 208.277C135.157 201.335 135.504 195.087 136.199 188.492L149.75 183.98C148.012 172.872 144.191 163.847 139.674 154.128C130.988 171.484 126.123 186.756 129.25 217.302C114.658 207.583 108.751 196.128 108.056 184.674C107.014 168.707 114.31 150.657 127.861 135.037ZM161.91 266.244C165.037 265.203 167.469 265.897 169.554 267.286C170.597 267.98 171.291 268.674 171.986 269.716L173.029 271.104C174.766 273.534 175.808 276.311 177.893 278.74C179.978 280.823 183.452 281.517 185.537 279.435C187.274 277.699 187.621 274.922 187.969 272.492C187.621 272.492 186.927 272.492 186.579 272.492C181.715 272.492 178.24 271.451 175.808 269.716C174.418 268.327 173.376 266.592 173.029 264.509C173.029 263.815 173.029 262.426 173.029 260.344V238.823L169.554 237.087L169.207 236.74H173.029H178.588C178.588 244.377 178.588 252.013 178.588 259.996C178.588 262.079 178.588 263.815 178.935 264.856C178.935 265.897 179.283 266.939 179.978 267.98C180.672 269.368 181.715 270.41 183.105 270.757C184.147 271.451 185.189 271.798 186.579 271.798C189.011 271.798 192.138 270.757 193.875 269.368C195.613 267.98 196.308 266.244 196.308 264.162C196.308 263.468 196.655 261.732 196.655 258.955V240.558L191.096 237.087V236.74H196.655H197.697C197.697 244.724 197.697 252.707 197.697 261.038C197.697 262.079 197.35 263.468 197.35 264.162C197.002 269.021 193.181 271.798 188.664 272.492C188.664 275.269 187.969 278.046 186.579 280.476C183.452 285.335 177.545 287.071 173.376 282.211C171.986 280.476 171.291 278.393 170.597 276.311C170.249 277.005 170.249 278.046 169.902 278.74C167.469 284.641 160.521 287.418 156.004 282.211C153.572 279.435 152.877 275.269 151.487 272.145C148.707 272.492 145.928 272.145 143.148 270.757C141.758 270.063 140.021 269.021 138.631 267.633C135.157 264.856 133.072 261.038 132.725 256.178L134.462 253.401L132.725 250.625C133.42 246.806 135.504 242.988 138.631 240.558C140.021 239.17 141.758 238.129 143.148 237.434C147.318 235.352 151.487 235.352 155.656 237.434C157.394 238.129 159.131 239.17 160.521 240.558C163.648 242.988 165.385 246.806 166.08 250.625L164.69 253.401L166.427 256.178C166.08 260.344 164.342 263.468 161.91 266.244ZM170.249 275.269C169.902 274.228 169.554 273.187 169.207 272.145L168.859 271.451C167.469 268.327 165.385 266.244 160.868 267.633H160.521C159.131 269.021 157.394 270.063 155.656 270.757L155.309 271.104C157.046 273.534 158.088 276.311 160.173 278.74C162.605 281.17 166.427 281.517 168.512 278.74C169.207 277.699 169.902 276.658 170.249 275.269ZM259.89 256.525L254.679 243.335L249.467 256.525H259.89ZM270.314 267.633L275.873 271.104V271.798H272.051H270.314H266.144L260.585 257.567H249.12L245.645 266.592L243.908 273.881L239.738 271.798H230.357H219.587V271.104L224.798 267.633V253.401V247.153V240.558V238.823L221.324 237.087V236.74H224.798H230.357V237.434V253.054V254.096V271.104H235.222C236.959 271.104 238.349 270.757 239.738 270.757L245.993 263.12C249.467 254.443 253.636 242.988 256.068 236.74H257.458L270.314 267.633ZM212.638 269.368L216.112 271.104V271.798H212.638H201.519V271.104L207.078 267.633V253.401V248.542V240.558V238.823L203.604 237.087L203.257 236.74H207.078H209.858H212.638H216.112V237.087L212.638 238.823V253.054V254.096V269.368ZM159.131 249.93C157.046 232.228 141.758 232.228 140.021 249.93L141.758 253.401L139.674 256.872C140.021 261.038 141.064 264.509 142.453 266.939C146.623 265.203 149.75 265.55 151.834 267.286C152.877 267.98 153.572 268.674 154.266 269.716C156.699 267.286 158.783 263.12 159.131 256.872L157.046 253.401L159.131 249.93ZM143.148 267.633C145.233 270.757 148.36 272.145 151.139 271.451C149.75 268.327 147.665 266.244 143.148 267.633ZM127.861 273.881L130.293 263.12H129.598L123.691 270.757C122.301 270.757 120.912 271.104 119.174 271.104H112.573V254.096H113.963C115.7 254.096 116.742 254.096 117.437 254.096C118.479 254.443 118.827 254.79 119.522 255.484C119.869 255.831 120.217 256.525 120.564 257.22L122.649 253.401L120.564 249.583C120.217 250.277 119.869 250.972 119.522 251.666C118.827 252.013 118.479 252.36 117.437 252.707C116.742 252.707 115.7 253.054 113.963 253.054H112.573V237.434H117.437C119.174 237.434 120.912 237.434 121.954 237.781L128.208 245.071H128.555L126.123 234.658L121.954 236.74H106.666H103.192V237.087L106.666 238.823V240.558V253.401V267.633L101.455 271.104V271.798H123.691L127.861 273.881ZM43.4309 271.104H49.3375C51.0747 271.104 52.4645 270.757 53.5068 270.757L59.7609 263.12H60.4558L58.0237 273.881L53.5068 271.798H43.4309H32.3126V271.104L37.8717 267.633V253.401V243.335V240.558V238.823L34.3973 237.087L34.0498 236.74H37.8717H43.4309V237.434V253.054V254.096V271.104ZM29.533 273.881L32.3126 263.12H31.6177L25.3636 270.757C24.3213 270.757 22.9315 271.104 20.8468 271.104H14.2453V254.096H15.9826C17.3724 254.096 18.4147 254.096 19.457 254.096C20.1519 254.443 20.8468 254.79 21.1943 255.484C21.8892 255.831 22.2366 256.525 22.2366 257.22L24.6687 253.401L22.2366 249.583C22.2366 250.277 21.8892 250.972 21.1943 251.666C20.8468 252.013 20.1519 252.36 19.457 252.707C18.4147 252.707 17.3724 253.054 15.9826 253.054H14.2453V237.434H19.457C21.1943 237.434 22.5841 237.434 23.6264 237.781L29.8804 245.071H30.5753L28.1432 234.658L23.6264 236.74H8.68618H5.21171V237.087L8.68618 238.823V240.558V245.418V253.401V267.633L3.12702 271.104V271.798H25.3636L29.533 273.881ZM82.345 236.74H83.0398H86.8618H87.9041H94.5056L99.0224 234.658L101.455 245.071H100.76L94.5056 237.781C93.4633 237.434 92.0735 237.434 90.3362 237.434H87.9041V259.302V259.649V263.815V269.368L91.3786 271.104V271.798H87.9041H82.345H76.7858V271.104L82.345 267.633V263.815V253.401V237.434H79.9128C78.1756 237.434 76.7858 237.434 75.396 237.781L69.142 245.071H68.7945L71.2266 234.658L75.396 236.74H82.345ZM144.538 29.516C145.928 17.3672 144.191 7.64815 139.674 0.358858L139.326 0.0117493V0.358858C134.809 7.64815 133.42 17.3672 134.462 29.516C126.818 23.6152 119.174 20.4912 111.531 19.4499C120.564 27.0863 128.208 36.4582 130.988 45.483C117.437 38.1938 105.276 37.1524 93.4633 39.5822C115.005 47.2186 128.903 57.6319 139.326 68.7393V69.0865L139.674 68.7393C150.097 57.6319 163.995 47.2186 185.884 39.5822C174.071 37.1524 161.91 38.1938 148.36 45.483C151.139 36.4582 158.436 27.0863 167.469 19.4499C159.826 20.4912 152.182 23.6152 144.538 29.516ZM210.9 62.4914C181.715 57.2848 158.783 65.9625 139.674 83.3179C120.217 65.9625 97.2852 57.2848 68.0996 62.4914C103.192 70.1278 121.606 85.0535 139.326 104.839V105.186H139.674V104.839C157.741 85.0535 176.156 70.1278 210.9 62.4914ZM279 143.368C248.772 134.69 216.807 136.773 181.367 166.624C183.799 175.302 184.494 185.021 181.715 193.699C203.257 169.748 243.213 146.492 279 143.368ZM255.026 104.839C223.061 100.326 191.443 107.268 165.732 137.814C169.902 143.021 173.376 148.574 176.156 153.781C201.867 125.318 229.315 111.087 255.026 104.839ZM0 143.368C30.5753 134.69 62.193 136.773 97.6326 166.624C95.2005 175.302 94.5056 185.021 97.2852 193.699C76.0909 169.748 35.787 146.492 0 143.368ZM23.9738 104.839C55.939 100.326 87.5567 107.268 113.268 137.814C109.098 143.021 105.624 148.574 102.844 153.781C77.1332 125.318 49.6849 111.087 23.9738 104.839Z" fill="url(#paint0_linear_2_2)"/>
<defs>
<linearGradient id="paint0_linear_2_2" x1="12.0989" y1="200.615" x2="266.932" y2="84.249" gradientUnits="userSpaceOnUse">
<stop stop-color="#8A5F2F"/>
<stop offset="0.239216" stop-color="#9A6E3B"/>
<stop offset="0.380392" stop-color="#BC995F"/>
<stop offset="0.501961" stop-color="#E7CB96"/>
<stop offset="0.631373" stop-color="#BC995F"/>
<stop offset="0.760784" stop-color="#9A6E3B"/>
<stop offset="1" stop-color="#8A5F2F"/>
</linearGradient>
</defs>
</svg>
